<svg xmlns="http://www.w3.org/2000/svg" viewBox="0 0 161.08 178.56"><defs><style>.cls-1{fill:#37474f;}.cls-2{fill:#8c9eff;}.cls-3{fill:none;}</style></defs><title>logo</title><g id="Layer_2" data-name="Layer 2"><g id="Layer_1-2" data-name="Layer 1"><polygon class="cls-1" points="157.85 44.64 80.54 0 3.22 44.64 3.22 133.92 80.54 178.56 157.85 133.92 157.85 44.64"/><path class="cls-2" d="M80.54,120.28l-26.85-15.5v-31l26.85-15.5,26.84,15.5,26.85-15.5-26.84-15.5h0L80.54,27.28,53.69,42.78,26.85,58.28h0v62h0l26.84,15.5,26.85,15.5,26.84-15.5h0l26.84-15.5-26.85-15.5Z"/><path class="cls-3" d="M134.23,58.28v62L147.65,97l4.48-7.75,9-15.5Zm-53.69,62-26.85-15.5v-31l26.85-15.5,26.84,15.5,26.85-15.5-26.84-15.5h0L80.54,27.28,53.69,11.78l-8.95,15.5L40.27,35,26.85,58.28h0L13.42,81.53,9,89.28,0,104.78l26.84,15.49h0l26.84,15.5,26.85,15.5,26.84,15.5,9-15.5,4.48-7.75,13.42-23.25-26.85-15.5Z"/><polyline class="cls-3" points="120.81 143.53 107.39 135.78 107.38 135.78 80.54 120.28 53.69 104.78 26.84 89.28 13.42 81.53"/><polyline class="cls-3" points="134.23 120.28 107.38 104.78 80.54 89.28 53.69 73.78 26.85 58.28 26.84 58.28"/><polyline class="cls-3" points="147.65 97.03 134.23 89.28 107.38 73.78 80.54 58.28 53.69 42.78 40.27 35.03"/><path class="cls-3" d="M152.13,89.28l-4.48-7.75L134.23,58.28v62l26.85-15.5Zm-71.59,31-26.85-15.5v-31l26.85-15.5,26.84,15.5,26.85-15.5L120.81,35l-4.48-7.75-9-15.5L80.54,27.28,53.69,42.78,26.85,58.28h0L0,73.78l9,15.5L13.42,97l13.42,23.24h0l13.42,23.25,4.47,7.75,8.95,15.5,26.85-15.5,26.84-15.5h0l26.84-15.5-26.85-15.5Z"/><polyline class="cls-3" points="120.81 35.03 107.39 42.78 107.38 42.78 80.54 58.28 53.69 73.78 26.84 89.28 13.42 97.03"/><polyline class="cls-3" points="134.23 58.28 107.38 73.78 80.54 89.28 53.69 104.78 26.85 120.28 26.84 120.28"/><polyline class="cls-3" points="147.65 81.53 134.23 89.28 107.38 104.78 80.54 120.28 53.69 135.78 40.27 143.53"/></g></g></svg>